<svg xmlns="http://www.w3.org/2000/svg" viewBox="0 0 24 24" id="yoast">
  <path fill="#962460" d="M1.496 17.827V7.383c0-1.968 1.653-3.574 3.691-3.574h9.19l.359-.961H5.188C2.59 2.847.5 4.876.5 7.383v10.439c0 2.507 2.116 4.551 4.688 4.551h.621v-.971c-3.035-.001-4.313-1.776-4.313-3.575z"></path>
  <path fill="#73AE26" d="m16.948 0-5.247 14.186-2.587-7.963H5.962c4.245 10.708 4.214 10.328 4.214 11.35 0 1.292-.791 3.438-3.316 3.829V24c1.488-.051 2.952-.565 4.02-1.663 2.002-2.055 2.1-3.112 9.483-22.337h-3.415z"></path>
  <path fill="#962460" d="m20.373 3.101-.344.895c1.596.559 2.474 1.546 2.474 3.198v14.192h-9.37c-.071.157-.283.498-.621.986h10.986V7.194h.002c0-1.902-.986-3.402-3.127-4.093z"></path>
</svg>
